<?xml version="1.0" encoding="utf-8"?>
<!-- Generator: Adobe Illustrator 24.1.2, SVG Export Plug-In . SVG Version: 6.00 Build 0)  -->
<svg version="1.1" id="iconito-lapiz_1_" xmlns="http://www.w3.org/2000/svg" xmlns:xlink="http://www.w3.org/1999/xlink" x="0px"
	 y="0px" viewBox="0 0 96 48" style="enable-background:new 0 0 96 48;" xml:space="preserve">
<style type="text/css">
	.st0{fill:none;stroke:#000000;stroke-width:2.5;stroke-linecap:round;stroke-miterlimit:10;}
	.st1{fill:none;stroke:#000000;stroke-width:2.5;stroke-linecap:round;stroke-linejoin:round;stroke-miterlimit:10;}
	.st2{fill:none;stroke:#000000;stroke-width:2.5;stroke-miterlimit:10;}
</style>
<g>
	<path class="st0" d="M51.3,41.8c-2.8,0-5.1-2.3-5.1-5.1V11.3c0-2.8,2.3-5.1,5.1-5.1h18c1.5,0,2.9,0.6,3.8,1.7l12.3,14.3
		c0.8,0.9,0.8,2.4,0,3.3L73.1,40c-1,1.1-2.4,1.7-3.8,1.7h-7"/>
	<g>
		<path class="st1" d="M55.2,26.2l10.1-11.5c0.5-0.6,1.5-0.6,2.1-0.1l6.2,5.4c0.6,0.5,0.6,1.5,0.1,2.1L63.5,33.6"/>
		<path class="st2" d="M55.2,26.2l-0.4,7.9c0,0.5,0.5,1,1,0.9l7.8-1.4"/>
		<line class="st2" x1="55.2" y1="26.2" x2="63.5" y2="33.6"/>
		<line class="st2" x1="59.6" y1="29.7" x2="70.6" y2="17.2"/>
	</g>
	<path class="st1" d="M54.9,38.3c0,1.9-1.6,3.6-3.6,3.6"/>
</g>
<line class="st0" x1="23.5" y1="6.2" x2="23.5" y2="41.7"/>
<line class="st0" x1="11.1" y1="14.2" x2="23.5" y2="6.2"/>
<line class="st0" x1="35.9" y1="14.2" x2="23.5" y2="6.2"/>
</svg>
