<?xml version="1.0" encoding="utf-8"?>
<!-- Generator: Adobe Illustrator 24.1.2, SVG Export Plug-In . SVG Version: 6.00 Build 0)  -->
<svg version="1.1" id="iconito-lapiz_1_" xmlns="http://www.w3.org/2000/svg" xmlns:xlink="http://www.w3.org/1999/xlink" x="0px"
	 y="0px" viewBox="0 0 48 48" style="enable-background:new 0 0 48 48;" xml:space="preserve">
<style type="text/css">
	.st0{fill:#FFFFFF;}
</style>
<g>
	<path class="st0" d="M45.6,21.4L32.2,5.7C30.9,4.2,29,3.3,27,3.3c0,0,0,0,0,0H7.3c-3.8,0-6.8,3.1-6.8,6.8v27.8
		c0,3.8,3.1,6.8,6.8,6.8c2.8,0,5.1-2.3,5.1-5.1c0-0.7-0.6-1.3-1.3-1.3s-1.3,0.6-1.3,1.3c0,1.4-1.2,2.6-2.6,2.6
		c-2.4,0-4.3-1.9-4.3-4.3V10.1c0-2.4,1.9-4.3,4.3-4.3H27c0,0,0,0,0,0c1.3,0,2.5,0.5,3.3,1.5L43.7,23c0.5,0.6,0.5,1.4,0,2L30.3,40.7
		c-0.8,1-2,1.5-3.3,1.5h-7.7c-0.7,0-1.3,0.6-1.3,1.3s0.6,1.3,1.3,1.3H27c2,0,3.9-0.9,5.2-2.4l13.5-15.7
		C46.9,25.1,46.9,22.9,45.6,21.4z"/>
	<path class="st0" d="M32.8,22.8c0.5-0.6,0.8-1.3,0.7-2.1c0-0.8-0.4-1.5-1-2l-6.7-5.9c-0.6-0.5-1.3-0.8-2.1-0.7c-0.8,0-1.5,0.4-2,1
		L10.7,25.6c-0.2,0.2-0.3,0.5-0.3,0.8l0,0L9.9,35c0,0.7,0.2,1.3,0.7,1.7c0.4,0.4,0.9,0.5,1.4,0.5c0.1,0,0.3,0,0.4,0l8.5-1.5l0,0
		c0.3,0,0.5-0.2,0.7-0.4L32.8,22.8z M23.7,14.7c0.1-0.1,0.2-0.1,0.3-0.1c0.1,0,0.2,0,0.3,0.1l2.4,2.1L16.1,28.7l-2.7-2.4L23.7,14.7z
		 M12.4,34.7l0.3-5.6l5.2,4.6L12.4,34.7z M20.6,32.7l-2.7-2.4l10.6-11.9l2.4,2.1c0.1,0.1,0.1,0.2,0.1,0.3s0,0.2-0.1,0.3L20.6,32.7z"
		/>
</g>
</svg>
