<?xml version="1.0" encoding="utf-8"?>
<!-- Generator: Adobe Illustrator 24.1.2, SVG Export Plug-In . SVG Version: 6.00 Build 0)  -->
<svg version="1.1" id="tools-v2" xmlns="http://www.w3.org/2000/svg" xmlns:xlink="http://www.w3.org/1999/xlink" x="0px" y="0px"
	 viewBox="0 0 2224.9 1286.2" style="enable-background:new 0 0 2224.9 1286.2;" xml:space="preserve">
<style type="text/css">
	.st0{fill:#505050;}
	.st1{fill:#2D2D2D;}
	.st2{fill:#919191;}
	.st3{fill:#414141;}
	.st4{fill:#353535;}
	.st5{opacity:0.1;}
	.st6{fill:#DDE7FE;}
	.st7{fill:#EBF2F9;}
	.st8{fill:#D5E5FB;}
	.st9{fill:#E2EEFD;}
	.st10{fill:#828282;}
	.st11{fill:#AFCDFB;}
	.st12{fill:#AEC3FF;}
	.st13{fill:#819DEA;}
	.st14{fill:#C5D7FF;}
	.st15{fill:#A8D29F;}
	.st16{fill:#D36D1A;}
	.st17{fill:#F49540;}
	.st18{fill:#FFA255;}
	.st19{fill:#F8FCFF;}
	.st20{opacity:0.5;}
	.st21{fill:#5E5E5E;}
	.st22{fill:#ED7D2B;}
	.st23{fill:#131375;}
	.st24{fill:#060633;}
	.st25{fill:#829CE8;}
	.st26{fill:#ED975D;}
	.st27{fill:#FFB27D;}
	.st28{fill:#A9453D;}
	.st29{fill:#233862;}
	.st30{fill:#EF873A;}
	.st31{fill:#BFBFBF;}
	.st32{fill:#15156D;}
	.st33{fill:#FA7267;}
	.st34{fill:#17152B;}
	.st35{opacity:0.3;}
	.st36{fill:#EA9963;}
</style>
<g>
	<g>
		<polygon class="st0" points="1857.9,1119.5 367.1,1119.5 517.3,966.5 1726.9,966.5 		"/>
	</g>
	<g>
		<rect x="367.1" y="1119.5" class="st1" width="1490.8" height="19.5"/>
	</g>
	<g>
		<g>
			<g>
				<rect x="525.9" y="998.6" class="st1" width="1188.2" height="5.3"/>
			</g>
		</g>
		<g>
			<g>
				<rect x="485.6" y="1030.5" class="st1" width="1260.4" height="5.3"/>
			</g>
		</g>
		<g>
			<g>
				<rect x="452.1" y="1065.9" class="st1" width="1327.5" height="5.3"/>
			</g>
		</g>
		<g>
			<rect x="531.9" y="975" class="st1" width="53.7" height="16.1"/>
		</g>
		<g>
			<rect x="943.4" y="975" class="st1" width="53.7" height="16.1"/>
		</g>
		<g>
			<rect x="1029.8" y="975" class="st1" width="53.7" height="16.1"/>
		</g>
		<g>
			<rect x="1259.6" y="975" class="st1" width="53.7" height="16.1"/>
		</g>
		<g>
			<rect x="1339.4" y="975" class="st1" width="53.7" height="16.1"/>
		</g>
		<g>
			<rect x="1425.8" y="975" class="st1" width="53.7" height="16.1"/>
		</g>
	</g>
</g>
<g>
	<g>
		<g>
			<path class="st2" d="M229.7,651.2H32.4C14.5,651.2,0,636.8,0,618.9V421.6c0-17.9,14.5-32.4,32.4-32.4h197.3
				c17.9,0,32.4,14.5,32.4,32.4v197.3C262,636.8,247.6,651.2,229.7,651.2z"/>
		</g>
		<g>
			<g>
				<g>
					<path class="st0" d="M220.9,514.4c0,4.7-0.3,9.3-1.1,13.8c-0.2,1.1-0.3,2.2-0.5,3.3c-1.5,7.8-4,15.1-7.4,22.1
						c-0.3,0.7-0.7,1.3-1,2c-5.8,11.3-14.1,21.3-23.9,29.2c-0.5,0.4-1.1,0.9-1.6,1.3c-10.1,7.7-21.8,13.3-34.7,16.1l0,0l-2.3,0.5
						l0,0c-3.3,0.7-6.6,1.1-9.9,1.3c-1.1,0.1-2.2,0.2-3.3,0.2l0,0c-1.4,0.1-2.7,0.1-4.2,0.1c-9.6,0-18.8-1.5-27.4-4.3
						c-1.3-0.4-2.6-0.9-4-1.4c-3.1-1.1-6.1-2.4-9-4c-0.7-0.3-1.3-0.7-2-1c-12.5-6.7-23.3-16.2-31.3-27.9c-0.4-0.5-0.8-1.1-1.2-1.8
						c-5.5-8.3-9.8-17.7-12.3-27.7c-0.3-1.3-0.7-2.7-1-4.2c-0.7-3.4-1.2-6.8-1.5-10.3c-0.1-0.9-0.1-1.8-0.2-2.6l0,0
						c-0.1-1.8-0.1-3.4-0.1-5.2c0-9.3,1.4-18.3,4.1-26.8c0.2-0.8,0.4-1.5,0.8-2.2c4.2-12.3,11.1-23.5,19.8-32.7c0.4-0.5,1-1,1.4-1.4
						c8.9-9,19.7-16,31.6-20.6c0.7-0.2,1.4-0.5,2.1-0.8c9.4-3.4,19.5-5.2,30.2-5.2c5.1,0,10,0.4,14.8,1.2c0.9,0.1,1.8,0.3,2.5,0.4
						c0.7,0.1,1.2,0.2,1.9,0.3c1.2,0.2,2.4,0.5,3.5,0.9c13,3.4,24.8,9.6,34.8,17.9c0.5,0.4,1.1,0.9,1.5,1.3
						c10.5,9.2,19,21,24.3,34.1c0.3,0.7,0.5,1.3,0.8,2.1c2.2,5.8,3.8,12,4.7,18.3c0.2,1.2,0.3,2.4,0.4,3.6l0,0
						C220.7,507.9,220.9,511.1,220.9,514.4z"/>
				</g>
			</g>
			<g>
				<g>
					<g>
						<path class="st1" d="M187,584.7c-0.5,0.4-1.1,0.9-1.6,1.3l-12-13.4l-1.4-1.5l-24.6-27.4l-1.4-1.5l-27.8-31l-1.4-1.5L89.3,479
							l-1.4-1.5l-22.4-24.9c0.4-0.5,1-1,1.4-1.4l22.5,25l1.4,1.5l27.4,30.6l1.4,1.5l27.9,30.8l1.4,1.5l24.6,27.4l1.3,1.5L187,584.7z
							"/>
					</g>
				</g>
				<g>
					<g>
						<path class="st1" d="M211.9,553.5c-0.3,0.7-0.7,1.3-1,2l-8.2-9.2l-1.4-1.5l-24.6-27.4l-1.4-1.5l-27.8-31l-1.4-1.5l-27.4-30.6
							l-1.3-1.5l-18.7-20.7c0.7-0.2,1.4-0.5,2.1-0.8l18.1,20.2l1.4,1.5l27.4,30.6l1.4,1.5l27.8,31l1.4,1.5l24.6,27.4l1.4,1.5
							L211.9,553.5z"/>
					</g>
				</g>
				<g>
					<g>
						<path class="st1" d="M219.9,501.2c0.2,1.2,0.3,2.4,0.4,3.6l-13.2-14.7l-1.3-1.5l-27.8-31l-1.3-1.5l-26.5-29.5
							c1.2,0.2,2.4,0.5,3.5,0.9l24.5,27.2l1.4,1.5l27.8,31l1.3,1.5L219.9,501.2z"/>
					</g>
				</g>
				<g>
					<g>
						<path class="st1" d="M150.6,602.1l-2.3,0.5l0,0l-3.7-4.2l-1.3-1.5l-24.6-27.4l-1.4-1.5l-27.8-31l-1.4-1.5l-27.4-30.6l-1.4-1.5
							L45,487.5c0.2-0.8,0.4-1.5,0.8-2.2l14.9,16.7l1.4,1.5l27.4,30.6l1.3,1.5l27.8,31l1.3,1.5l24.6,27.4l1.4,1.5L150.6,602.1z"/>
					</g>
				</g>
				<g>
					<g>
						<path class="st1" d="M148.3,426.1l-28.1,25.2l-1.5,1.3l-27.8,24.9l-1.5,1.4l-27.2,24.5l-1.5,1.4l-19.2,17.2
							c-0.1-0.9-0.1-1.8-0.2-2.6l0,0l18.1-16.2l1.5-1.3L88,477.5l1.5-1.3l27.8-24.9l1.5-1.3l26.9-24.2
							C146.7,425.8,147.5,425.9,148.3,426.1z"/>
					</g>
				</g>
				<g>
					<g>
						<path class="st1" d="M190.1,446.6l-10.5,9.4l-1.5,1.4l-28.9,25.9l-1.5,1.4l-27.8,24.9l-1.5,1.4l-27.2,24.5l-1.5,1.4L66,558.2
							l-1.5,1.4l-7.1,6.4c-0.4-0.5-0.8-1.1-1.2-1.8l6.9-6.3l1.5-1.4l23.6-21.2l1.5-1.3l27.2-24.5l1.5-1.4l27.8-24.9l1.5-1.4l29-25.9
							l1.5-1.4l10.4-9.3C189,445.7,189.6,446.2,190.1,446.6z"/>
					</g>
				</g>
				<g>
					<g>
						<path class="st1" d="M215.2,482.8l-6.5,5.8l-1.5,1.4L178.3,516l-1.5,1.4L149,542.3l-1.5,1.4l-27.2,24.5l-1.5,1.4l-23.6,21.1
							l-1.5,1.4l-3.1,2.7c-0.7-0.3-1.3-0.7-2-1l3.6-3.3l1.5-1.4l23.6-21.1l1.5-1.4l27.2-24.5l1.5-1.4l27.8-24.9l1.5-1.4l29-25.9
							l1.5-1.4l7-6.4C214.6,481.4,215,482.1,215.2,482.8z"/>
					</g>
				</g>
				<g>
					<g>
						<path class="st1" d="M219.8,528.2c-0.2,1.1-0.3,2.2-0.5,3.3l-15,13.5l-1.5,1.3l-27.8,24.9l-1.5,1.4l-27.2,24.5l-1.5,1.3
							l-6.1,5.5c-1.1,0.1-2.2,0.2-3.3,0.2l8.1-7.2l1.5-1.3l27.2-24.5l1.5-1.4l27.8-24.9l1.5-1.3L219.8,528.2z"/>
					</g>
				</g>
				<g>
					<g>
						<path class="st1" d="M103.5,600c-1.3-0.4-2.6-0.9-4-1.4l-5.9-6.7l-1.4-1.5l-27.8-31l-1.3-1.5l-19.2-21.4
							c-0.3-1.3-0.7-2.7-1-4.2l21.6,24.2l1.3,1.5l27.8,31l1.4,1.5L103.5,600z"/>
					</g>
				</g>
			</g>
		</g>
	</g>
	<g>
		<g>
			<path class="st2" d="M229.7,916.8H32.4C14.5,916.8,0,902.3,0,884.4V687.1c0-17.9,14.5-32.4,32.4-32.4h197.3
				c17.9,0,32.4,14.5,32.4,32.4v197.3C262,902.3,247.6,916.8,229.7,916.8z"/>
		</g>
		<g>
			<g>
				<g>
					<path class="st0" d="M220.9,779.9c0,4.7-0.3,9.3-1.1,13.8c-0.2,1.1-0.3,2.2-0.5,3.3c-1.5,7.8-4,15.1-7.4,22.1
						c-0.3,0.7-0.7,1.3-1,2c-5.8,11.3-14.1,21.3-23.9,29.2c-0.5,0.4-1.1,0.9-1.6,1.3c-10.1,7.7-21.8,13.3-34.7,16.1l0,0l-2.3,0.5
						l0,0c-3.3,0.7-6.6,1.1-9.9,1.3c-1.1,0.1-2.2,0.2-3.3,0.2l0,0c-1.4,0.1-2.7,0.1-4.2,0.1c-9.6,0-18.8-1.5-27.4-4.3
						c-1.3-0.4-2.6-0.9-4-1.4c-3.1-1.1-6.1-2.4-9-4c-0.7-0.3-1.3-0.7-2-1c-12.5-6.7-23.3-16.2-31.3-27.9c-0.4-0.5-0.8-1.1-1.2-1.8
						c-5.5-8.3-9.8-17.7-12.3-27.7c-0.3-1.3-0.7-2.7-1-4.2c-0.7-3.4-1.2-6.8-1.5-10.3c-0.1-0.9-0.1-1.8-0.2-2.6l0,0
						c-0.1-1.8-0.1-3.4-0.1-5.2c0-9.3,1.4-18.3,4.1-26.8c0.2-0.8,0.4-1.5,0.8-2.2c4.2-12.3,11.1-23.5,19.8-32.7c0.4-0.5,1-1,1.4-1.4
						c8.9-9,19.7-16,31.6-20.6c0.7-0.2,1.4-0.5,2.1-0.8c9.4-3.4,19.5-5.2,30.2-5.2c5.1,0,10,0.4,14.8,1.2c0.9,0.1,1.8,0.3,2.5,0.4
						c0.7,0.1,1.2,0.2,1.9,0.3c1.2,0.2,2.4,0.5,3.5,0.9c13,3.4,24.8,9.6,34.8,17.9c0.5,0.4,1.1,0.9,1.5,1.3
						c10.5,9.2,19,21,24.3,34.1c0.3,0.7,0.5,1.3,0.8,2.1c2.2,5.8,3.8,12,4.7,18.3c0.2,1.2,0.3,2.4,0.4,3.6l0,0
						C220.7,773.4,220.9,776.6,220.9,779.9z"/>
				</g>
			</g>
			<g>
				<g>
					<g>
						<path class="st1" d="M187,850.3c-0.5,0.4-1.1,0.9-1.6,1.3l-12-13.4l-1.4-1.5l-24.6-27.4l-1.4-1.5l-27.8-31l-1.4-1.5
							l-27.4-30.6l-1.4-1.5l-22.4-24.9c0.4-0.5,1-1,1.4-1.4l22.5,25l1.4,1.5l27.4,30.6l1.4,1.5l27.9,30.8l1.4,1.5l24.6,27.4l1.3,1.5
							L187,850.3z"/>
					</g>
				</g>
				<g>
					<g>
						<path class="st1" d="M211.9,819.1c-0.3,0.7-0.7,1.3-1,2l-8.2-9.2l-1.4-1.5l-24.6-27.4l-1.4-1.5l-27.8-31l-1.4-1.5l-27.4-30.6
							l-1.3-1.5l-18.7-20.7c0.7-0.2,1.4-0.5,2.1-0.8l18.1,20.2l1.4,1.5l27.4,30.6l1.4,1.5l27.8,31l1.4,1.5l24.6,27.4l1.4,1.5
							L211.9,819.1z"/>
					</g>
				</g>
				<g>
					<g>
						<path class="st1" d="M219.9,766.7c0.2,1.2,0.3,2.4,0.4,3.6l-13.2-14.7l-1.3-1.5l-27.8-31l-1.3-1.5l-26.5-29.5
							c1.2,0.2,2.4,0.5,3.5,0.9l24.5,27.2l1.4,1.5l27.8,31l1.3,1.5L219.9,766.7z"/>
					</g>
				</g>
				<g>
					<g>
						<path class="st1" d="M150.6,867.6l-2.3,0.5l0,0l-3.7-4.2l-1.3-1.5L118.7,835l-1.4-1.5l-27.8-31L88,801l-27.4-30.6l-1.4-1.5
							L45,753c0.2-0.8,0.4-1.5,0.8-2.2l14.9,16.7l1.4,1.5l27.4,30.6l1.3,1.5l27.8,31l1.3,1.5l24.6,27.4l1.4,1.5L150.6,867.6z"/>
					</g>
				</g>
				<g>
					<g>
						<path class="st1" d="M148.3,691.6l-28.1,25.2l-1.5,1.3l-27.8,24.9l-1.5,1.4L62.1,769l-1.5,1.4l-19.2,17.2
							c-0.1-0.9-0.1-1.8-0.2-2.6l0,0l18.1-16.2l1.5-1.3L88,743l1.5-1.3l27.8-24.9l1.5-1.3l26.9-24.2
							C146.7,691.3,147.5,691.4,148.3,691.6z"/>
					</g>
				</g>
				<g>
					<g>
						<path class="st1" d="M190.1,712.2l-10.5,9.4l-1.5,1.4l-28.9,25.9l-1.5,1.4l-27.8,24.9l-1.5,1.4l-27.2,24.5l-1.5,1.4L66,823.7
							l-1.5,1.4l-7.1,6.4c-0.4-0.5-0.8-1.1-1.2-1.8l6.9-6.3l1.5-1.4l23.6-21.2l1.5-1.3l27.2-24.5l1.5-1.4l27.8-24.9l1.5-1.4l29-25.9
							l1.5-1.4l10.4-9.3C189,711.3,189.6,711.7,190.1,712.2z"/>
					</g>
				</g>
				<g>
					<g>
						<path class="st1" d="M215.2,748.4l-6.5,5.8l-1.5,1.4l-28.9,25.9l-1.5,1.4L149,807.9l-1.5,1.4l-27.2,24.5l-1.5,1.4l-23.6,21.1
							l-1.5,1.4l-3.1,2.7c-0.7-0.3-1.3-0.7-2-1l3.6-3.3l1.5-1.4l23.6-21.1l1.5-1.4l27.2-24.5l1.5-1.4l27.8-24.9l1.5-1.4l29-25.9
							l1.5-1.4l7-6.4C214.6,747,215,747.6,215.2,748.4z"/>
					</g>
				</g>
				<g>
					<g>
						<path class="st1" d="M219.8,793.7c-0.2,1.1-0.3,2.2-0.5,3.3l-15,13.5l-1.5,1.3l-27.8,24.9l-1.5,1.4l-27.2,24.5l-1.5,1.3
							l-6.1,5.5c-1.1,0.1-2.2,0.2-3.3,0.2l8.1-7.2l1.5-1.3l27.2-24.5l1.5-1.4l27.8-24.9l1.5-1.3L219.8,793.7z"/>
					</g>
				</g>
				<g>
					<g>
						<path class="st1" d="M103.5,865.5c-1.3-0.4-2.6-0.9-4-1.4l-5.9-6.7l-1.4-1.5l-27.8-31l-1.3-1.5L43.9,802
							c-0.3-1.3-0.7-2.7-1-4.2l21.6,24.2l1.3,1.5l27.8,31l1.4,1.5L103.5,865.5z"/>
					</g>
				</g>
			</g>
		</g>
	</g>
</g>
<g>
	<g>
		<g>
			<path class="st2" d="M2192.6,651.2h-197.3c-17.9,0-32.4-14.5-32.4-32.4V421.6c0-17.9,14.5-32.4,32.4-32.4h197.3
				c17.9,0,32.4,14.5,32.4,32.4v197.3C2224.9,636.8,2210.4,651.2,2192.6,651.2z"/>
		</g>
		<g>
			<g>
				<g>
					<path class="st0" d="M2183.8,514.4c0,4.7-0.3,9.3-1.1,13.8c-0.2,1.1-0.3,2.2-0.5,3.3c-1.5,7.8-4,15.1-7.4,22.1
						c-0.3,0.7-0.7,1.3-1,2c-5.8,11.3-14.1,21.3-23.9,29.2c-0.5,0.4-1.1,0.9-1.6,1.3c-10.1,7.7-21.8,13.3-34.7,16.1l0,0l-2.3,0.5
						l0,0c-3.3,0.7-6.6,1.1-9.9,1.3c-1.1,0.1-2.2,0.2-3.3,0.2l0,0c-1.4,0.1-2.7,0.1-4.2,0.1c-9.6,0-18.8-1.5-27.4-4.3
						c-1.3-0.4-2.6-0.9-4-1.4c-3.1-1.1-6.1-2.4-9-4c-0.7-0.3-1.3-0.7-2-1c-12.5-6.7-23.3-16.2-31.3-27.9c-0.4-0.5-0.8-1.1-1.2-1.8
						c-5.5-8.3-9.8-17.7-12.3-27.7c-0.3-1.3-0.7-2.7-1-4.2c-0.7-3.4-1.2-6.8-1.5-10.3c-0.1-0.9-0.1-1.8-0.2-2.6l0,0
						c-0.1-1.8-0.1-3.4-0.1-5.2c0-9.3,1.4-18.3,4.1-26.8c0.2-0.8,0.4-1.5,0.8-2.2c4.2-12.3,11.1-23.5,19.8-32.7c0.4-0.5,1-1,1.4-1.4
						c8.9-9,19.7-16,31.6-20.6c0.7-0.2,1.4-0.5,2.1-0.8c9.4-3.4,19.5-5.2,30.2-5.2c5.1,0,10,0.4,14.8,1.2c0.9,0.1,1.8,0.3,2.5,0.4
						c0.7,0.1,1.2,0.2,1.9,0.3c1.2,0.2,2.4,0.5,3.5,0.9c13,3.4,24.8,9.6,34.8,17.9c0.5,0.4,1.1,0.9,1.5,1.3
						c10.5,9.2,19,21,24.3,34.1c0.3,0.7,0.5,1.3,0.8,2.1c2.2,5.8,3.8,12,4.7,18.3c0.2,1.2,0.3,2.4,0.4,3.6l0,0
						C2183.5,507.9,2183.8,511.1,2183.8,514.4z"/>
				</g>
			</g>
			<g>
				<g>
					<g>
						<path class="st1" d="M2149.8,584.7c-0.5,0.4-1.1,0.9-1.6,1.3l-12-13.4l-1.4-1.5l-24.6-27.4l-1.4-1.5l-27.8-31l-1.4-1.5
							l-27.4-30.6l-1.4-1.5l-22.4-24.9c0.4-0.5,1-1,1.4-1.4l22.5,25l1.4,1.5l27.4,30.6l1.4,1.5l27.9,30.8l1.4,1.5l24.6,27.4l1.3,1.5
							L2149.8,584.7z"/>
					</g>
				</g>
				<g>
					<g>
						<path class="st1" d="M2174.8,553.5c-0.3,0.7-0.7,1.3-1,2l-8.2-9.2l-1.4-1.5l-24.6-27.4l-1.4-1.5l-27.8-31l-1.4-1.5l-27.4-30.6
							l-1.3-1.5l-18.7-20.7c0.7-0.2,1.4-0.5,2.1-0.8l18.1,20.2l1.4,1.5l27.4,30.6l1.4,1.5l27.8,31l1.4,1.5l24.6,27.4l1.4,1.5
							L2174.8,553.5z"/>
					</g>
				</g>
				<g>
					<g>
						<path class="st1" d="M2182.8,501.2c0.2,1.2,0.3,2.4,0.4,3.6l-13.2-14.7l-1.3-1.5l-27.8-31l-1.3-1.5l-26.5-29.5
							c1.2,0.2,2.4,0.5,3.5,0.9l24.5,27.2l1.4,1.5l27.8,31l1.3,1.5L2182.8,501.2z"/>
					</g>
				</g>
				<g>
					<g>
						<path class="st1" d="M2113.5,602.1l-2.3,0.5l0,0l-3.7-4.2l-1.3-1.5l-24.6-27.4l-1.4-1.5l-27.8-31l-1.4-1.5l-27.4-30.6
							l-1.4-1.5l-14.2-15.8c0.2-0.8,0.4-1.5,0.8-2.2l14.9,16.7l1.4,1.5l27.4,30.6l1.3,1.5l27.8,31l1.3,1.5l24.6,27.4l1.4,1.5
							L2113.5,602.1z"/>
					</g>
				</g>
				<g>
					<g>
						<path class="st1" d="M2111.2,426.1l-28.1,25.2l-1.5,1.3l-27.8,24.9l-1.5,1.4l-27.2,24.5l-1.5,1.4l-19.2,17.2
							c-0.1-0.9-0.1-1.8-0.2-2.6l0,0l18.1-16.2l1.5-1.3l27.2-24.5l1.5-1.3l27.8-24.9l1.5-1.3l26.9-24.2
							C2109.6,425.8,2110.4,425.9,2111.2,426.1z"/>
					</g>
				</g>
				<g>
					<g>
						<path class="st1" d="M2153,446.6l-10.5,9.4l-1.5,1.4l-28.9,25.9l-1.5,1.4l-27.8,24.9l-1.5,1.4l-27.2,24.5l-1.5,1.4l-23.6,21.1
							l-1.5,1.4l-7.1,6.4c-0.4-0.5-0.8-1.1-1.2-1.8l6.9-6.3l1.5-1.4l23.6-21.2l1.5-1.3l27.2-24.5l1.5-1.4l27.8-24.9l1.5-1.4l29-25.9
							l1.5-1.4l10.4-9.3C2151.9,445.7,2152.5,446.2,2153,446.6z"/>
					</g>
				</g>
				<g>
					<g>
						<path class="st1" d="M2178.1,482.8l-6.5,5.8l-1.5,1.4l-28.9,25.9l-1.5,1.4l-27.8,24.9l-1.5,1.4l-27.2,24.5l-1.5,1.4
							l-23.6,21.1l-1.5,1.4l-3.1,2.7c-0.7-0.3-1.3-0.7-2-1l3.6-3.3l1.5-1.4l23.6-21.1l1.5-1.4l27.2-24.5l1.5-1.4l27.8-24.9l1.5-1.4
							l29-25.9l1.5-1.4l7-6.4C2177.5,481.4,2177.8,482.1,2178.1,482.8z"/>
					</g>
				</g>
				<g>
					<g>
						<path class="st1" d="M2182.7,528.2c-0.2,1.1-0.3,2.2-0.5,3.3l-15,13.5l-1.5,1.3l-27.8,24.9l-1.5,1.4l-27.2,24.5l-1.5,1.3
							l-6.1,5.5c-1.1,0.1-2.2,0.2-3.3,0.2l8.1-7.2l1.5-1.3l27.2-24.5l1.5-1.4l27.8-24.9l1.5-1.3L2182.7,528.2z"/>
					</g>
				</g>
				<g>
					<g>
						<path class="st1" d="M2066.4,600c-1.3-0.4-2.6-0.9-4-1.4l-5.9-6.7l-1.4-1.5l-27.8-31l-1.3-1.5l-19.2-21.4
							c-0.3-1.3-0.7-2.7-1-4.2l21.6,24.2l1.3,1.5l27.8,31l1.4,1.5L2066.4,600z"/>
					</g>
				</g>
			</g>
		</g>
	</g>
	<g>
		<g>
			<path class="st2" d="M2192.6,916.8h-197.3c-17.9,0-32.4-14.5-32.4-32.4V687.1c0-17.9,14.5-32.4,32.4-32.4h197.3
				c17.9,0,32.4,14.5,32.4,32.4v197.3C2224.9,902.3,2210.4,916.8,2192.6,916.8z"/>
		</g>
		<g>
			<g>
				<g>
					<path class="st0" d="M2183.8,779.9c0,4.7-0.3,9.3-1.1,13.8c-0.2,1.1-0.3,2.2-0.5,3.3c-1.5,7.8-4,15.1-7.4,22.1
						c-0.3,0.7-0.7,1.3-1,2c-5.8,11.3-14.1,21.3-23.9,29.2c-0.5,0.4-1.1,0.9-1.6,1.3c-10.1,7.7-21.8,13.3-34.7,16.1l0,0l-2.3,0.5
						l0,0c-3.3,0.7-6.6,1.1-9.9,1.3c-1.1,0.1-2.2,0.2-3.3,0.2l0,0c-1.4,0.1-2.7,0.1-4.2,0.1c-9.6,0-18.8-1.5-27.4-4.3
						c-1.3-0.4-2.6-0.9-4-1.4c-3.1-1.1-6.1-2.4-9-4c-0.7-0.3-1.3-0.7-2-1c-12.5-6.7-23.3-16.2-31.3-27.9c-0.4-0.5-0.8-1.1-1.2-1.8
						c-5.5-8.3-9.8-17.7-12.3-27.7c-0.3-1.3-0.7-2.7-1-4.2c-0.7-3.4-1.2-6.8-1.5-10.3c-0.1-0.9-0.1-1.8-0.2-2.6l0,0
						c-0.1-1.8-0.1-3.4-0.1-5.2c0-9.3,1.4-18.3,4.1-26.8c0.2-0.8,0.4-1.5,0.8-2.2c4.2-12.3,11.1-23.5,19.8-32.7c0.4-0.5,1-1,1.4-1.4
						c8.9-9,19.7-16,31.6-20.6c0.7-0.2,1.4-0.5,2.1-0.8c9.4-3.4,19.5-5.2,30.2-5.2c5.1,0,10,0.4,14.8,1.2c0.9,0.1,1.8,0.3,2.5,0.4
						c0.7,0.1,1.2,0.2,1.9,0.3c1.2,0.2,2.4,0.5,3.5,0.9c13,3.4,24.8,9.6,34.8,17.9c0.5,0.4,1.1,0.9,1.5,1.3
						c10.5,9.2,19,21,24.3,34.1c0.3,0.7,0.5,1.3,0.8,2.1c2.2,5.8,3.8,12,4.7,18.3c0.2,1.2,0.3,2.4,0.4,3.6l0,0
						C2183.5,773.4,2183.8,776.6,2183.8,779.9z"/>
				</g>
			</g>
			<g>
				<g>
					<g>
						<path class="st1" d="M2149.8,850.3c-0.5,0.4-1.1,0.9-1.6,1.3l-12-13.4l-1.4-1.5l-24.6-27.4l-1.4-1.5l-27.8-31l-1.4-1.5
							l-27.4-30.6l-1.4-1.5l-22.4-24.9c0.4-0.5,1-1,1.4-1.4l22.5,25l1.4,1.5l27.4,30.6l1.4,1.5l27.9,30.8l1.4,1.5l24.6,27.4l1.3,1.5
							L2149.8,850.3z"/>
					</g>
				</g>
				<g>
					<g>
						<path class="st1" d="M2174.8,819.1c-0.3,0.7-0.7,1.3-1,2l-8.2-9.2l-1.4-1.5l-24.6-27.4l-1.4-1.5l-27.8-31l-1.4-1.5l-27.4-30.6
							l-1.3-1.5l-18.7-20.7c0.7-0.2,1.4-0.5,2.1-0.8l18.1,20.2l1.4,1.5l27.4,30.6l1.4,1.5l27.8,31l1.4,1.5l24.6,27.4l1.4,1.5
							L2174.8,819.1z"/>
					</g>
				</g>
				<g>
					<g>
						<path class="st1" d="M2182.8,766.7c0.2,1.2,0.3,2.4,0.4,3.6l-13.2-14.7l-1.3-1.5l-27.8-31l-1.3-1.5l-26.5-29.5
							c1.2,0.2,2.4,0.5,3.5,0.9l24.5,27.2l1.4,1.5l27.8,31l1.3,1.5L2182.8,766.7z"/>
					</g>
				</g>
				<g>
					<g>
						<path class="st1" d="M2113.5,867.6l-2.3,0.5l0,0l-3.7-4.2l-1.3-1.5l-24.6-27.4l-1.4-1.5l-27.8-31l-1.4-1.5l-27.4-30.6
							l-1.4-1.5l-14.2-15.8c0.2-0.8,0.4-1.5,0.8-2.2l14.9,16.7l1.4,1.5l27.4,30.6l1.3,1.5l27.8,31l1.3,1.5l24.6,27.4l1.4,1.5
							L2113.5,867.6z"/>
					</g>
				</g>
				<g>
					<g>
						<path class="st1" d="M2111.2,691.6l-28.1,25.2l-1.5,1.3l-27.8,24.9l-1.5,1.4L2025,769l-1.5,1.4l-19.2,17.2
							c-0.1-0.9-0.1-1.8-0.2-2.6l0,0l18.1-16.2l1.5-1.3l27.2-24.5l1.5-1.3l27.8-24.9l1.5-1.3l26.9-24.2
							C2109.6,691.3,2110.4,691.4,2111.2,691.6z"/>
					</g>
				</g>
				<g>
					<g>
						<path class="st1" d="M2153,712.2l-10.5,9.4l-1.5,1.4l-28.9,25.9l-1.5,1.4l-27.8,24.9l-1.5,1.4l-27.2,24.5l-1.5,1.4l-23.6,21.1
							l-1.5,1.4l-7.1,6.4c-0.4-0.5-0.8-1.1-1.2-1.8l6.9-6.3l1.5-1.4l23.6-21.2l1.5-1.3l27.2-24.5l1.5-1.4l27.8-24.9l1.5-1.4l29-25.9
							l1.5-1.4l10.4-9.3C2151.9,711.3,2152.5,711.7,2153,712.2z"/>
					</g>
				</g>
				<g>
					<g>
						<path class="st1" d="M2178.1,748.4l-6.5,5.8l-1.5,1.4l-28.9,25.9l-1.5,1.4l-27.8,24.9l-1.5,1.4l-27.2,24.5l-1.5,1.4
							l-23.6,21.1l-1.5,1.4l-3.1,2.7c-0.7-0.3-1.3-0.7-2-1l3.6-3.3l1.5-1.4l23.6-21.1l1.5-1.4l27.2-24.5l1.5-1.4l27.8-24.9l1.5-1.4
							l29-25.9l1.5-1.4l7-6.4C2177.5,747,2177.8,747.6,2178.1,748.4z"/>
					</g>
				</g>
				<g>
					<g>
						<path class="st1" d="M2182.7,793.7c-0.2,1.1-0.3,2.2-0.5,3.3l-15,13.5l-1.5,1.3l-27.8,24.9l-1.5,1.4l-27.2,24.5l-1.5,1.3
							l-6.1,5.5c-1.1,0.1-2.2,0.2-3.3,0.2l8.1-7.2l1.5-1.3l27.2-24.5l1.5-1.4l27.8-24.9l1.5-1.3L2182.7,793.7z"/>
					</g>
				</g>
				<g>
					<g>
						<path class="st1" d="M2066.4,865.5c-1.3-0.4-2.6-0.9-4-1.4l-5.9-6.7l-1.4-1.5l-27.8-31l-1.3-1.5l-19.2-21.4
							c-0.3-1.3-0.7-2.7-1-4.2l21.6,24.2l1.3,1.5l27.8,31l1.4,1.5L2066.4,865.5z"/>
					</g>
				</g>
			</g>
		</g>
	</g>
</g>
<g>
	<g>
		<g>
			<rect x="454.8" class="st2" width="1315.3" height="772.2"/>
		</g>
		<g>
			<rect x="454.8" class="st1" width="1315.3" height="648.8"/>
		</g>
		<g>
			<path class="st2" d="M1284.7,898v18.8H898.4V898c27.3,0,49.6-21.1,51.7-47.9c0.1-1.3,0.1-2.7,0.1-4.1v-73.9h282.5v73.9
				c0,1.3,0.1,2.7,0.1,4.1c1,12.7,6.6,24.2,15,32.6C1257.4,892.2,1270.4,898,1284.7,898z"/>
		</g>
		<g>
			<rect x="950.4" y="772.2" class="st3" width="282.5" height="15.5"/>
		</g>
		<g>
			<path class="st3" d="M1284.7,898H898.4c27.3,0,49.6-21.1,51.7-47.9H1233c1,12.7,6.6,24.2,15,32.6
				C1257.4,892.2,1270.4,898,1284.7,898z"/>
		</g>
	</g>
	<g>
		<rect x="471.9" y="17.1" class="st4" width="1278.6" height="607.3"/>
	</g>
	<g>
		<g class="st5">
			<rect x="502" y="45.1" class="st6" width="274.1" height="274.1"/>
		</g>
		<g class="st5">
			<rect x="502" y="349.5" class="st6" width="274.1" height="249.8"/>
		</g>
		<g class="st5">
			<rect x="829.3" y="380.9" class="st6" width="883" height="218.4"/>
		</g>
		<g>
			<rect x="829.3" y="45.1" class="st7" width="564.4" height="308.8"/>
		</g>
		<g>
			<g>
				<path class="st8" d="M1366.9,129.4V354H829.3V186.3h20.1v10.4h16.5v-6h15.3v-23.9h7.6v-11.2h1.2v11.2h18.3v-21h1.8v21h12.1v-0.3
					l0,0v-2.6l0,0v-2.5l0,0v-4.2l0,0v-2.6l0,0v-4.2l0,0v-2.6l0,0v-4.2l0,0v-3.1l0,0v-4.2l0,0v-3.6l0,0v-4.3l0,0v-2.7h3.6v-3.2h0.5
					v3.2h26.7v-3.2h0.5v3.2h4.8v22h3.4l0,0l0,0v-4.2l0,0v-3l0,0v-4.2l0,0v-2.9l0,0v-4.2l0,0l0,0h32.4l0,0h5.6
					c0.3,0.1,0.5,0.2,0.9,0.3v23.9h23.6v31.4h19.1v-58.1h4.2v-4.1h0.8v4.1h15v-4.1h0.8v4.1h21.4v-4.1h0.8v4.1h13.5v-4.1h0.8v4.1h5.5
					V181h21.1v-8.8l24.9,0.1v-14.3h5v-2.9h0.7v2.9h19.2l0,0h3.8v-2.9h0.7v2.9h4.6v28.2h29.6v10.4h16.5v-6h15.3v-23.9h7.6v-11.2h1.1
					v11.2h18.3v-21h1.8v21h12.1v-0.3l0,0v-2.6l0,0v-2.5l0,0v-4.2l0,0v-2.6l0,0v-4.2l0,0v-2.6l0,0v-4.2l0,0v-3.1l0,0v-4.2l0,0v-3.6
					l0,0v-4.3l0,0v-2.7h3.6v-3.2h0.5v3.2h26.7v-3.2h0.5v3.2h4.8v22h3.4l0,0l0,0l0,0v-4.2l0,0v-3l0,0v-4.2l0,0v-2.9l0,0v-4.2l0,0l0,0
					h32.4l0,0h5.6C1366.4,129.2,1366.7,129.3,1366.9,129.4z"/>
			</g>
			<g>
				<g>
					<rect x="1058.3" y="126.7" class="st9" width="47.8" height="9.2"/>
				</g>
				<g>
					<g>
						<rect x="1288.5" y="125.6" class="st9" width="22.3" height="5.6"/>
					</g>
					<g>
						<rect x="1288.5" y="134.2" class="st9" width="22.3" height="5.6"/>
					</g>
					<g>
						<rect x="1288.5" y="142.9" class="st9" width="22.3" height="5.6"/>
					</g>
					<g>
						<rect x="1288.5" y="151.8" class="st9" width="22.3" height="5.6"/>
					</g>
					<g>
						<rect x="1288.5" y="160.5" class="st9" width="22.3" height="5.6"/>
					</g>
				</g>
				<g>
					<g>
						<rect x="1288.5" y="169.9" class="st9" width="22.3" height="5.6"/>
					</g>
					<g>
						<rect x="1288.5" y="178.5" class="st9" width="22.3" height="5.6"/>
					</g>
					<g>
						<rect x="1288.5" y="187.3" class="st9" width="22.3" height="5.6"/>
					</g>
					<g>
						<rect x="1288.5" y="196.2" class="st9" width="22.3" height="5.6"/>
					</g>
					<g>
						<rect x="1288.5" y="204.7" class="st9" width="22.3" height="5.6"/>
					</g>
				</g>
				<g>
					<g>
						<rect x="921.9" y="125.6" class="st9" width="23.8" height="5.6"/>
					</g>
					<g>
						<rect x="921.9" y="134.2" class="st9" width="23.8" height="5.6"/>
					</g>
					<g>
						<rect x="921.9" y="142.9" class="st9" width="23.8" height="5.6"/>
					</g>
					<g>
						<rect x="921.9" y="151.8" class="st9" width="23.8" height="5.6"/>
					</g>
					<g>
						<rect x="921.9" y="160.5" class="st9" width="23.8" height="5.6"/>
					</g>
				</g>
				<g>
					<g>
						<rect x="921.9" y="169.9" class="st9" width="23.8" height="5.6"/>
					</g>
					<g>
						<rect x="921.9" y="178.5" class="st9" width="23.8" height="5.6"/>
					</g>
					<g>
						<rect x="921.9" y="187.3" class="st9" width="23.8" height="5.6"/>
					</g>
					<g>
						<rect x="921.9" y="196.2" class="st9" width="23.8" height="5.6"/>
					</g>
					<g>
						<rect x="921.9" y="204.7" class="st9" width="23.8" height="5.6"/>
					</g>
				</g>
				<g>
					<g>
						<rect x="962.3" y="129.2" class="st9" width="27.1" height="5.6"/>
					</g>
					<g>
						<rect x="962.3" y="137.9" class="st9" width="27.1" height="5.6"/>
					</g>
					<g>
						<rect x="962.3" y="146.6" class="st9" width="27.1" height="5.6"/>
					</g>
					<g>
						<rect x="962.3" y="155.6" class="st9" width="27.1" height="5.6"/>
					</g>
					<g>
						<rect x="962.3" y="164.1" class="st9" width="27.1" height="5.6"/>
					</g>
				</g>
				<g>
					<g>
						<rect x="962.3" y="173.1" class="st9" width="27.1" height="5.6"/>
					</g>
					<g>
						<rect x="962.3" y="181.7" class="st9" width="27.1" height="5.6"/>
					</g>
					<g>
						<rect x="962.3" y="190.5" class="st9" width="27.1" height="5.6"/>
					</g>
					<g>
						<rect x="962.3" y="199.4" class="st9" width="27.1" height="5.6"/>
					</g>
					<g>
						<rect x="962.3" y="207.9" class="st9" width="27.1" height="5.6"/>
					</g>
				</g>
			</g>
		</g>
		<g>
			<g>
				<path class="st10" d="M1318.7,106.3h-2.1v-0.1l0.7-5.6c0-0.2,0.2-0.3,0.3-0.3c0,0,0,0,0.1,0s0.2,0.1,0.3,0.1
					c0.1,0.1,0.2,0.2,0.2,0.3L1318.7,106.3z"/>
			</g>
			<g>
				<path class="st11" d="M1316.8,105L1316.8,105l0.4-4.5c0-0.2,0.2-0.3,0.3-0.3c0,0,0,0,0.1,0l0,0c0.1,0.1,0.1,0.2,0.1,0.3v3.2
					C1317.9,104.5,1317.4,105,1316.8,105z"/>
			</g>
			<g>
				<rect x="1315.9" y="131.2" class="st10" width="4.1" height="178.5"/>
			</g>
			<g>
				<rect x="1315.9" y="131.2" class="st12" width="1.9" height="178.5"/>
			</g>
			<g>
				<rect x="1311.6" y="281.1" class="st10" width="12.8" height="47.2"/>
			</g>
			<g>
				<rect x="1311.6" y="281.1" class="st12" width="7.7" height="47.2"/>
			</g>
			<g>
				<path class="st10" d="M1325.1,108.9c0,2.2-3.3,4-7.4,4c-0.3,0-0.7,0-0.9,0c-3.6-0.2-6.5-2-6.5-4c0-2.1,2.9-3.7,6.5-4
					c0.3,0,0.7,0,0.9,0C1321.8,105,1325.1,106.7,1325.1,108.9z"/>
			</g>
			<g>
				<path class="st12" d="M1321.2,108.9c0,1.8-1.9,3.3-4.5,4c-3.6-0.2-6.5-2-6.5-4c0-2.1,2.9-3.7,6.5-4
					C1319.4,105.6,1321.2,107.1,1321.2,108.9z"/>
			</g>
			<g>
				<polygon class="st12" points="1324.4,134.7 1311.6,134.7 1307.1,112.7 1328.2,112.7 				"/>
			</g>
			<g>
				<rect x="1305.8" y="111.1" class="st10" width="23.6" height="2.1"/>
			</g>
			<g>
				<rect x="1305.8" y="111.1" class="st12" width="14.8" height="2.1"/>
			</g>
			<g>
				<path class="st13" d="M1313.6,281.1h8.2l-1.2-3.6c-0.1-0.3-0.4-0.5-0.8-0.5h-3.8c-0.4,0-0.8,0.2-1,0.7L1313.6,281.1z"/>
			</g>
			<g>
				<polygon class="st14" points="1308.6,113.8 1326.7,113.8 1323.2,133.5 1312.8,133.5 				"/>
			</g>
			<g>
				<polygon class="st10" points="1327.9,111.1 1307.4,111.1 1309,108.8 1326.4,108.8 				"/>
			</g>
			<g>
				<polygon class="st12" points="1322.9,111.1 1307.4,111.1 1309,108.8 1321.2,108.8 				"/>
			</g>
		</g>
		<g>
			<path class="st15" d="M959.2,328.7H829.3V297c0.4,0.2,0.9,0.4,1.2,0.7c17.7,9,15.4,21.1,37.3,16.7s40.1-6.3,49.8,0
				c9.8,6.3,17,3.7,29.2,3.7C957.1,317.8,958.8,325.9,959.2,328.7z"/>
		</g>
		<g>
			<g>
				<polygon class="st16" points="986.1,292.3 862.3,292.3 856.6,263.3 980.1,263.3 				"/>
			</g>
			<g>
				<polygon class="st17" points="988.3,292.3 864.5,292.3 858.8,263.3 982.3,263.3 				"/>
			</g>
			<g>
				<path class="st16" d="M898.9,295.9h-33.8c-1.5,0-2.7-1.2-2.7-2.7v-0.9h36.6V295.9z"/>
			</g>
			<g>
				<rect x="898.7" y="292.3" class="st18" width="112.4" height="3.5"/>
			</g>
			<g>
				<g>
					<path class="st18" d="M869.8,295.9l-2.1,8.3l0,0l-6.3,24.7c-0.1,0.3-0.3,0.5-0.7,0.5c-0.7,0-1.1-0.5-1-1.2l5.6-28.8l0.7-3.6
						H869.8z"/>
				</g>
			</g>
			<g>
				<path class="st16" d="M867.6,304.2c0.2-4.3-2.4-4.7-2.4-4.7l0.7-3.6h3.8L867.6,304.2z"/>
			</g>
			<g>
				<g>
					<path class="st18" d="M896.6,295.9l-2.1,8.3l0,0l-6.3,24.7c-0.1,0.3-0.3,0.5-0.7,0.5c-0.7,0-1.1-0.5-1-1.2l5.6-28.8l0.7-3.6
						H896.6z"/>
				</g>
			</g>
			<g>
				<path class="st16" d="M894.5,304.2c0.2-4.3-2.4-4.7-2.4-4.7l0.7-3.6h3.8L894.5,304.2z"/>
			</g>
			<g>
				<g>
					<path class="st18" d="M1000.8,295.9l2.1,8.3l0,0l6.3,24.7c0.1,0.3,0.3,0.5,0.7,0.5c0.7,0,1.1-0.5,1-1.2l-5.6-28.8l-0.7-3.6
						H1000.8z"/>
				</g>
			</g>
			<g>
				<path class="st16" d="M1002.9,304.2c-0.2-4.3,2.4-4.7,2.4-4.7l-0.7-3.6h-3.8L1002.9,304.2z"/>
			</g>
			<g>
				<g>
					<path class="st18" d="M973.9,295.9l2.1,8.3l0,0l6.3,24.7c0.1,0.3,0.3,0.5,0.7,0.5c0.7,0,1.1-0.5,1-1.2l-5.6-28.8l-0.7-3.6
						H973.9z"/>
				</g>
			</g>
			<g>
				<path class="st16" d="M976.1,304.2c-0.2-4.3,2.4-4.7,2.4-4.7l-0.7-3.6H974L976.1,304.2z"/>
			</g>
		</g>
		<g>
			<path class="st15" d="M906.5,124.7c-3.2,1.9-6.9,3.1-11,3.3c-17.9,1.1-24.2,7.8-38.6,21.8c-7.8,7.6-18.6,9.2-27.4,9.4V63.6
				c2.5,1.8,5.2,3.6,7.8,5.4c9.9,6.6,20.5,12,32.3,9.1c11.7-2.9,20.9-2.6,27.9-0.4c9.1,2.9,15,9.1,19.2,16.7
				C922.4,104.8,917.3,118.5,906.5,124.7z"/>
		</g>
		<g>
			<path class="st19" d="M1052.8,90.9c0-4.4,3.6-8,8-8s8,3.6,8,8s-3.6,8-8,8C1056.3,98.9,1052.8,95.3,1052.8,90.9z"/>
		</g>
		<g>
			<path class="st19" d="M1184.9,83.7c0,0,7-11.2,23.6-10c0,0,24.3-18.7,50.1-2.5c0,0,27.4-4.1,47.8,3.5c13.5,4.9,18,10.2,18,10.2
				L1184.9,83.7z"/>
		</g>
		<g class="st20">
			<path class="st19" d="M1268.2,112.5c0,0,4.6-7.4,15.5-6.5c0,0,15.8-12.2,32.7-1.6c0,0,18-2.6,31.3,2.3c8.9,3.3,11.7,6.7,11.7,6.7
				L1268.2,112.5z"/>
		</g>
		<g class="st20">
			<path class="st19" d="M927.5,107.5c0,0,4.6-7.4,15.5-6.5c0,0,15.8-12.2,32.7-1.6c0,0,18-2.6,31.3,2.3c8.9,3.3,11.7,6.7,11.7,6.7
				L927.5,107.5z"/>
		</g>
		<g>
			<rect x="829.3" y="328.5" class="st10" width="564.4" height="25.6"/>
		</g>
		<g>
			<g>
				<path class="st21" d="M1184.9,320.7c0,0-2.7-10,4.8-19.8c7.6-9.8,20.3-7.1,20.3-7.1s1.8,2.7-1.8,4.9c-3.5,2.2-15.8-2.2-19,19.2
					C1189.4,317.8,1187.8,322.2,1184.9,320.7z"/>
			</g>
			<g>
				<path class="st22" d="M1089.2,176.2c0-2.5,2.1-4.5,4.5-4.5c2.5,0,4.5,2.1,4.5,4.5c0,2.5-2.1,4.5-4.5,4.5
					C1091.2,180.8,1089.2,178.7,1089.2,176.2z"/>
			</g>
			<g>
				<path class="st10" d="M1199.4,314.6c0-3.5,2.9-6.4,6.4-6.4s6.4,2.9,6.4,6.4c0,3.5-2.9,6.4-6.4,6.4S1199.4,318.1,1199.4,314.6z"
					/>
			</g>
			<g>
				<path class="st10" d="M1057.9,309.8c0-5.4,4.4-9.8,9.8-9.8s9.8,4.4,9.8,9.8s-4.4,9.8-9.8,9.8S1057.9,315.2,1057.9,309.8z"/>
			</g>
			<g>
				<g>
					
						<rect x="1020" y="235.3" transform="matrix(0.1359 -0.9907 0.9907 0.1359 695.6875 1272.1356)" class="st23" width="114.2" height="4"/>
				</g>
			</g>
			<g>
				<g>
					<polygon class="st22" points="1073.4,184.3 1073.4,180 1093.3,175.6 1094.6,179.3 					"/>
				</g>
			</g>
			<g>
				<g>
					<path class="st24" d="M1068,328.4c-10,0-18.2-8.1-18.2-18.2c0-10,8.1-18.2,18.2-18.2c10,0,18.2,8.1,18.2,18.2
						C1086.2,320.1,1077.9,328.4,1068,328.4z M1068,295.6c-8,0-14.5,6.5-14.5,14.5s6.5,14.5,14.5,14.5s14.5-6.5,14.5-14.5
						C1082.4,302.1,1076,295.6,1068,295.6z"/>
				</g>
			</g>
			<g>
				<g>
					<path class="st24" d="M1205.7,327.9c-7.4,0-13.3-5.9-13.3-13.3c0-7.4,5.9-13.3,13.3-13.3c7.4,0,13.3,5.9,13.3,13.3
						C1219,322,1213.1,327.9,1205.7,327.9z M1205.7,304.3c-5.7,0-10.3,4.6-10.3,10.3c0,5.7,4.6,10.3,10.3,10.3
						c5.7,0,10.3-4.6,10.3-10.3C1216,308.9,1211.4,304.3,1205.7,304.3z"/>
				</g>
			</g>
			<g>
				<path class="st23" d="M1186.1,322.3h-90.2c-1.6,0-3-1.3-3-3v-1.4c0-1.6,1.3-3,3-3h90.2c1.6,0,3,1.3,3,3v1.4
					C1189,321,1187.7,322.3,1186.1,322.3z"/>
			</g>
			<g>
				<g>
					<path class="st23" d="M1187.2,322.3c-0.7,0-1.2-0.4-1.4-1c-0.2-0.8,0.1-1.6,0.9-1.9l18.6-6.1c0.8-0.2,1.6,0.1,1.9,0.9
						c0.2,0.8-0.1,1.6-0.9,1.9l-18.6,6.1C1187.5,322.3,1187.3,322.3,1187.2,322.3z"/>
				</g>
			</g>
			<g>
				<polygon class="st23" points="1073,265.3 1104.1,315.2 1112,315.2 1074.6,256.1 				"/>
			</g>
			<g>
				<path class="st24" d="M1074.8,294.2l-2.9-0.9l-3,9.8c-1,3.3-4.1,5.4-7.5,5l-9.4-0.8l-0.2,3l9.4,0.8c4,0.3,7.5,2.5,9.6,5.8l5,7.9
					l2.5-1.6l-4.8-7.6c-2.3-3.5-2.9-7.9-1.6-12L1074.8,294.2z"/>
			</g>
			<g>
				<path class="st24" d="M1210,304.5l-1.9-0.5l-2,6.4c-0.7,2.1-2.6,3.5-4.8,3.3l-6.1-0.5l-0.1,2l6.1,0.5c2.5,0.2,4.8,1.6,6.3,3.7
					l3.3,5l1.6-1.1l-3.2-4.9c-1.4-2.3-1.9-5.2-1.1-7.8L1210,304.5z"/>
			</g>
			<g>
				<path class="st21" d="M1204,314.4c0-0.8,0.7-1.4,1.4-1.4c0.8,0,1.4,0.7,1.4,1.4c0,0.8-0.7,1.4-1.4,1.4S1204,315.2,1204,314.4z"
					/>
			</g>
			<g>
				<path class="st21" d="M1066.2,309.8c0-0.8,0.7-1.4,1.4-1.4c0.8,0,1.4,0.7,1.4,1.4s-0.7,1.4-1.4,1.4S1066.2,310.6,1066.2,309.8z"
					/>
			</g>
			<g>
				<path class="st21" d="M1056.5,290.9c0,0,8.6-5.9,20.2-2.1c11.7,3.8,13.5,16.8,13.5,16.8s-2,2.6-5.3,0
					c-3.2-2.6-3.3-15.7-24.5-11.4C1060.6,294.1,1056,294.2,1056.5,290.9z"/>
			</g>
			<g>
				<path class="st25" d="M1137.6,67.5c0,0-14.7,23.7-14.7,30.1c0,6.5,4.7,13.8,4.7,13.8l14.9-12.4l7.5-13.3L1137.6,67.5z"/>
			</g>
			<g>
				<path class="st26" d="M1149.2,102.3c0,0-4.9,9-13.8,7.4c0,0-2.6-4-3.3-7.1c-0.1-0.4-0.1-0.8-0.2-1.1c-0.8-3.5-1.2-5.5-1.2-5.5
					l0,0c0.3-0.2,11.6-7.7,11.6-7.2C1143.9,98.4,1149.2,102.3,1149.2,102.3z"/>
			</g>
			<g>
				<path class="st27" d="M1126.7,96.4c0,0,13.6,4.6,16.4-4c2.7-8.6,6.3-13.7-2.3-17c-8.6-3.3-11.3-0.5-13,2.1
					C1126.2,80.1,1123.2,95.1,1126.7,96.4z"/>
			</g>
			<g>
				<path class="st28" d="M1111.2,315.2h22.5c0.2,0,0.3-0.1,0.4-0.1c1.5-0.8,1-6.5,0.9-8.2c0-0.3-0.1-0.5-0.1-0.5s-7.9-6.4-9-1.5
					c0,0.1-0.1,0.3-0.1,0.4l0,0c-1.4,4.5-7.5,6.6-11.1,7.1C1112.1,312.8,1111.4,314.4,1111.2,315.2z"/>
			</g>
			<g>
				<path class="st28" d="M1155.2,315.2h22.5c0.2,0,0.3-0.1,0.4-0.1c1.5-0.8,1-6.5,0.9-8.2c0-0.3-0.1-0.5-0.1-0.5s-7.9-6.4-9-1.5
					c0,0.1-0.1,0.3-0.1,0.4l0,0c-1.4,4.5-7.5,6.6-11.1,7.1C1156.1,312.8,1155.4,314.4,1155.2,315.2z"/>
			</g>
			<g>
				<path class="st21" d="M1115.7,185.4c0,0,1.2,15,2.6,33c1.9,24.5,4.3,54.6,4.5,60.3c0.4,9.9,3.1,26.6,3.1,26.6s1.6,2.6,9.1,1
					c0,0,7.8-22.3,9.7-46.2c0-0.4,0.1-0.8,0.1-1.2c1.8-24.4,4.5-75.5,4.5-75.5L1115.7,185.4z"/>
			</g>
			<g>
				<path class="st22" d="M1115.7,185.4c0,0,1.2,15,2.6,33l26.3,41.7c0-0.4,0.1-0.8,0.1-1.2c1.8-24.4,4.5-75.5,4.5-75.5
					L1115.7,185.4z"/>
			</g>
			<g>
				<path class="st21" d="M1121.2,187.2c0,0,14.7,56.5,29,82s19.3,36.9,19.3,36.9s8.8,2.3,9.4,0.1c0,0-7.5-60.7-13.3-75
					c-3-7.4-4.4-30-4.7-37.1c-0.3-7.1-5.3-16.8-5.3-16.8L1121.2,187.2z"/>
			</g>
			<g>
				<path class="st10" d="M1116.4,209.1c27.4,13.5,57.4,9.1,57.3,8.2c0-1-11.4-61.5-15.4-79c-3.6-16.5-8.6-30.7-13.2-34
					c-0.5-0.4-4.2,1.4-7.6,3.2c-3.1,1.5-6.1,1.9-9.1,1.3c0,0-1.5,2-2.4,4.2c-1.9,4.5-11.4,35.2-11.6,40.5c0,0.3,0,0.7,0,1
					c0,1.5-0.1,3.1-0.1,4.6C1114.5,160.6,1116,209,1116.4,209.1z"/>
			</g>
			<g>
				<path class="st21" d="M1115.4,186.1c26.9-15.1,24.3-49.8,24.3-49.8l-25.1,22.6c0,1.8,0,3.5,0,5.2c0,1.3,0,2.5,0,3.8v0.2
					c0,0.4,0,1,0,1.4C1114.5,171.6,1115.4,184.2,1115.4,186.1z"/>
			</g>
			<g>
				<path class="st27" d="M1088.2,175.8c-1.3-2.3-0.3-3.3-0.3-3.3s22.3-16.4,24-18s10.5-28.8,10.5-28.8s3.1-11,9.4-12
					c5.6-0.9,9.3,2,11.6,5.3c2.9,4,3,9.2,0.4,13.3c-5.8,9.2-17.6,27.3-21,30.4c-7.5,6.8-31.6,15-31.6,15S1089.2,177.6,1088.2,175.8z
					"/>
			</g>
			<g>
				<path class="st29" d="M1142.4,94.7c0.2,0.1,3.1,1.3,9.9-9.4c1.1-1.6,2-5.5,0.2-9.1c-1.8-3.6-8.9-6.9-14.9-8.7s-7.8,1.5-9.6,4.9
					c-1.9,3.5-6.5,6.1-6.5,6.1c5,3.4,11.7-0.2,13.9,0.7c2.2,0.9,2.6,4.5,2.6,5.6c0.1,1.1,0.2,2.1,3.1,1.3c2.9-0.8,0.9,4.1,0.3,4.9
					C1141.5,91.1,1140.8,93.6,1142.4,94.7z"/>
			</g>
			<g>
				<path class="st10" d="M1137.6,67.5c0,0,7.6,12.8,7.8,18.3c0.2,5.5-16.8,22.7-16.8,22.7s14.6,3.8,20.6,0c0,0,13.9-19.3,13.9-22.9
					C1163,82.2,1154.9,67.7,1137.6,67.5z"/>
			</g>
			<g>
				<path class="st21" d="M1124.3,184.9c0,0,13.2,2.2,21.5,1l-0.2,13.3l-10.5,4.1l-10.8-5.9V184.9z"/>
			</g>
			<g>
				<path class="st27" d="M1087.8,172.5c0,0-8.6,0.4-10.2,2c-1.8,1.6-5,4.6-2.5,5.2l6.1-1.3c3.1,0.8,4.3,2.4,6.3,1.4
					c2-1,4.2-2.2,4.2-2.2L1087.8,172.5z"/>
			</g>
			<g>
				<path class="st21" d="M1067.4,181.6c0-2.5,2.1-4.5,4.5-4.5s4.5,2.1,4.5,4.5c0,2.5-2.1,4.5-4.5,4.5S1067.4,184.1,1067.4,181.6z"
					/>
			</g>
			<g>
				<path class="st21" d="M1190.7,149.5c0,0.7-0.1,1.2-0.2,1.8c-1.8,6.8-24.9,12-27.4,9.6c-0.4-0.4-1-1.1-1.5-2
					c-6.6-10.9-14.9-50.2-11.6-47.9c0,0,6.1-1.9,11.2-2.4l0.9-0.1l0,0c1.6-0.1,3.1,0,4.1,0.3c4.3,1.6,7.7,12.8,7.7,12.8
					s3.5-0.5,6.7-0.1c0.4,0,0.8,0.1,1.1,0.2l0,0c1,0.2,1.9,0.5,2.5,1C1186.7,124.6,1191.1,142.2,1190.7,149.5z"/>
			</g>
			<g>
				<path class="st21" d="M1152.7,110.4c0,0-7.9-7.6-21.2-4.8l-3,3.2c0,0,13.3-3.2,20.6,3.8L1152.7,110.4z"/>
			</g>
			<g>
				<path class="st21" d="M1129.6,146.4c0,0,7.9,14.1,29.5,7.1l2.2,5.3c0,0-25.7,7.4-34.4-6.8L1129.6,146.4z"/>
			</g>
			<g>
				<path class="st10" d="M1132.5,111.4c0,0-5.5-0.7-7.5,4.5c-1.4,3.6-4.7,20.9-12,33.4c-3,5-14.1,14.8-18.7,18.3
					c0,0,1.6,5.5,5.3,6.9c0,0,17.6,1.8,29.1-11.3c3.3-3.7,22.9-35.8,18.9-42.4C1143.6,114.3,1132.5,111.4,1132.5,111.4z"/>
			</g>
			<g>
				<g>
					<path class="st22" d="M1161.9,108.5c-0.8,0.8-2.3,2.7-1.8,6.6c0.7,5.2,2.3,8.8,2.3,8.9l-0.5,0.2c0,0-1.8-3.8-2.4-9
						c-0.4-3.4,0.7-5.5,1.5-6.6L1161.9,108.5z"/>
				</g>
			</g>
			<g>
				<g>
					<path class="st22" d="M1184.3,149.7l-0.5,0.2c-0.2-0.9-6.4-20.6-5.9-24.3c0.2-2.3,1.6-3.5,2.7-4.1c0.4,0,0.8,0.1,1.1,0.2
						c-0.8,0.2-2.9,1.1-3.2,4C1178,129.2,1184.2,149.5,1184.3,149.7z"/>
				</g>
			</g>
			<g>
				<path class="st22" d="M1156.8,141l5.5,15.5c0,0,7.6,0.2,12.2-3l-5-15.9C1169.3,137.7,1165.1,140.8,1156.8,141z"/>
			</g>
			<g>
				<path class="st22" d="M1190.7,149.5c0,0.7-0.1,1.2-0.2,1.8c-1.8,6.8-24.9,12-27.4,9.6c-0.4-0.4-1-1.1-1.5-2
					C1161.7,158.9,1174.8,158.4,1190.7,149.5z"/>
			</g>
			<g>
				<path class="st30" d="M1156.8,141l1.6,4.5l7.2,0.5l5.2-4l-1.4-4.4C1169.3,137.7,1161.2,139.3,1156.8,141z"/>
			</g>
			<g>
				<path class="st23" d="M1164.4,144.7c0-0.2,0.2-0.4,0.4-0.4c0.2,0,0.4,0.2,0.4,0.4s-0.2,0.4-0.4,0.4
					C1164.7,145.1,1164.4,144.9,1164.4,144.7z"/>
			</g>
		</g>
		<g>
			<rect x="869.6" y="407.9" class="st10" width="676.9" height="17"/>
		</g>
		<g>
			<rect x="869.6" y="442.3" class="st10" width="676.9" height="17"/>
		</g>
		<g>
			<rect x="1171.1" y="476.7" class="st10" width="375.3" height="17"/>
		</g>
		<g>
			<rect x="1094.4" y="511" class="st10" width="291.1" height="17"/>
		</g>
		<g>
			<rect x="1171.1" y="545.4" class="st10" width="375.3" height="17"/>
		</g>
		<g>
			<rect x="521.8" y="270" class="st10" width="179.3" height="8.5"/>
		</g>
		<g>
			<rect x="718.3" y="270" class="st10" width="19.8" height="19.8"/>
		</g>
		<g>
			<rect x="588.8" y="270" class="st31" width="82.2" height="8.5"/>
		</g>
		<g>
			<rect x="521.8" y="223.3" class="st10" width="179.3" height="8.5"/>
		</g>
		<g>
			<rect x="718.3" y="223.3" class="st10" width="19.8" height="19.8"/>
		</g>
		<g>
			<rect x="545.3" y="223.3" class="st31" width="57.3" height="8.5"/>
		</g>
		<g>
			<rect x="521.8" y="176.6" class="st10" width="179.3" height="8.5"/>
		</g>
		<g>
			<rect x="718.3" y="176.6" class="st21" width="19.8" height="19.8"/>
		</g>
		<g>
			<rect x="610.5" y="176.6" class="st21" width="57.3" height="8.5"/>
		</g>
		<g>
			<rect x="521.8" y="130" class="st10" width="179.3" height="8.5"/>
		</g>
		<g>
			<rect x="718.3" y="130" class="st21" width="19.8" height="19.8"/>
		</g>
		<g>
			<rect x="545.3" y="130" class="st21" width="87.2" height="8.5"/>
		</g>
		<g>
			<rect x="521.8" y="83.3" class="st10" width="179.3" height="8.5"/>
		</g>
		<g>
			<rect x="718.3" y="83.3" class="st31" width="19.8" height="19.8"/>
		</g>
		<g>
			<rect x="606.3" y="83.3" class="st31" width="76.4" height="8.5"/>
		</g>
		<g>
			<g>
				<rect x="602.5" y="376" class="st10" width="17.5" height="17.5"/>
			</g>
			<g>
				<rect x="633.7" y="376" class="st10" width="17.5" height="17.5"/>
			</g>
			<g>
				<rect x="663.1" y="378.3" class="st10" width="90.8" height="6.5"/>
			</g>
			<g>
				<polygon class="st10" points="576.6,373.8 590.8,384.7 576.6,393 				"/>
			</g>
		</g>
		<g>
			<rect x="602.5" y="409.4" class="st21" width="17.5" height="17.5"/>
		</g>
		<g>
			<rect x="633.7" y="409.4" class="st10" width="17.5" height="17.5"/>
		</g>
		<g>
			<rect x="663.1" y="411.6" class="st10" width="90.8" height="6.5"/>
		</g>
		<g>
			<polygon class="st10" points="576.6,407.2 590.8,418 576.6,426.4 			"/>
		</g>
		<g>
			<rect x="602.5" y="442.6" class="st31" width="17.5" height="17.5"/>
		</g>
		<g>
			<rect x="633.7" y="442.6" class="st10" width="17.5" height="17.5"/>
		</g>
		<g>
			<rect x="663.1" y="444.9" class="st10" width="90.8" height="6.5"/>
		</g>
		<g>
			<polygon class="st10" points="576.6,440.4 590.8,451.3 576.6,459.7 			"/>
		</g>
		<g>
			<rect x="602.5" y="476" class="st31" width="17.5" height="17.5"/>
		</g>
		<g>
			<rect x="633.7" y="476" class="st10" width="17.5" height="17.5"/>
		</g>
		<g>
			<rect x="663.1" y="478.2" class="st10" width="90.8" height="6.5"/>
		</g>
		<g>
			<polygon class="st10" points="576.6,473.8 590.8,484.7 576.6,493 			"/>
		</g>
		<g>
			<rect x="602.5" y="509.3" class="st21" width="17.5" height="17.5"/>
		</g>
		<g>
			<rect x="633.7" y="509.3" class="st10" width="17.5" height="17.5"/>
		</g>
		<g>
			<rect x="663.1" y="511.5" class="st10" width="90.8" height="6.5"/>
		</g>
		<g>
			<polygon class="st10" points="576.6,507.1 590.8,517.9 576.6,526.3 			"/>
		</g>
		<g>
			<rect x="602.5" y="542.5" class="st21" width="17.5" height="17.5"/>
		</g>
		<g>
			<rect x="633.7" y="542.5" class="st10" width="17.5" height="17.5"/>
		</g>
		<g>
			<rect x="663.1" y="544.8" class="st10" width="90.8" height="6.5"/>
		</g>
		<g>
			<polygon class="st10" points="576.6,540.5 590.8,551.3 576.6,559.7 			"/>
		</g>
		<g class="st20">
			<g>
				<path class="st6" d="M519,383.5c0,0,4.6-5.9,10.9-5.9c6.4,0,10.3,5.9,10.3,5.9s-3.3,5.9-10.3,5.9
					C522.6,389.4,519,383.5,519,383.5z"/>
			</g>
			<g>
				<path class="st32" d="M525.5,383.5c0-2.3,1.9-4.1,4.1-4.1c2.2,0,4.1,1.9,4.1,4.1c0,2.3-1.9,4.1-4.1,4.1
					C527.4,387.5,525.5,385.7,525.5,383.5z"/>
			</g>
			<g>
				<path class="st6" d="M527.1,383.5c0-1.4,1.1-2.5,2.5-2.5c1.4,0,2.5,1.1,2.5,2.5c0,1.4-1.1,2.5-2.5,2.5
					C528.3,386,527.1,384.8,527.1,383.5z"/>
			</g>
		</g>
		<g class="st20">
			<g>
				<path class="st6" d="M519,416.7c0,0,4.6-5.9,10.9-5.9c6.4,0,10.3,5.9,10.3,5.9s-3.3,5.9-10.3,5.9
					C522.6,422.7,519,416.7,519,416.7z"/>
			</g>
			<g>
				<path class="st32" d="M525.5,416.7c0-2.3,1.9-4.1,4.1-4.1c2.2,0,4.1,1.9,4.1,4.1c0,2.3-1.9,4.1-4.1,4.1
					C527.4,420.8,525.5,419,525.5,416.7z"/>
			</g>
			<g>
				<path class="st6" d="M527.1,416.7c0-1.4,1.1-2.5,2.5-2.5c1.4,0,2.5,1.1,2.5,2.5c0,1.4-1.1,2.5-2.5,2.5
					C528.3,419.3,527.1,418.2,527.1,416.7z"/>
			</g>
		</g>
		<g class="st20">
			<g>
				<path class="st6" d="M519,450.1c0,0,4.6-5.9,10.9-5.9c6.4,0,10.3,5.9,10.3,5.9s-3.3,5.9-10.3,5.9C522.6,456,519,450.1,519,450.1
					z"/>
			</g>
			<g>
				<path class="st32" d="M525.5,450.1c0-2.3,1.9-4.1,4.1-4.1c2.2,0,4.1,1.9,4.1,4.1c0,2.3-1.9,4.1-4.1,4.1
					C527.4,454.2,525.5,452.3,525.5,450.1z"/>
			</g>
			<g>
				<path class="st6" d="M527.1,450.1c0-1.4,1.1-2.5,2.5-2.5c1.4,0,2.5,1.1,2.5,2.5c0,1.4-1.1,2.5-2.5,2.5
					C528.3,452.6,527.1,451.4,527.1,450.1z"/>
			</g>
		</g>
		<g class="st20">
			<g>
				<path class="st6" d="M519,483.4c0,0,4.6-5.9,10.9-5.9c6.4,0,10.3,5.9,10.3,5.9s-3.3,5.9-10.3,5.9
					C522.6,489.3,519,483.4,519,483.4z"/>
			</g>
			<g>
				<path class="st32" d="M525.5,483.4c0-2.3,1.9-4.1,4.1-4.1c2.2,0,4.1,1.9,4.1,4.1c0,2.3-1.9,4.1-4.1,4.1
					C527.4,487.4,525.5,485.7,525.5,483.4z"/>
			</g>
			<g>
				<path class="st6" d="M527.1,483.4c0-1.4,1.1-2.5,2.5-2.5c1.4,0,2.5,1.1,2.5,2.5c0,1.4-1.1,2.5-2.5,2.5
					C528.3,485.9,527.1,484.8,527.1,483.4z"/>
			</g>
		</g>
		<g class="st20">
			<g>
				<path class="st6" d="M519,516.7c0,0,4.6-5.9,10.9-5.9c6.4,0,10.3,5.9,10.3,5.9s-3.3,5.9-10.3,5.9
					C522.6,522.7,519,516.7,519,516.7z"/>
			</g>
			<g>
				<path class="st32" d="M525.5,516.7c0-2.3,1.9-4.1,4.1-4.1c2.2,0,4.1,1.9,4.1,4.1c0,2.3-1.9,4.1-4.1,4.1
					C527.4,520.8,525.5,518.9,525.5,516.7z"/>
			</g>
			<g>
				<path class="st6" d="M527.1,516.7c0-1.4,1.1-2.5,2.5-2.5c1.4,0,2.5,1.1,2.5,2.5s-1.1,2.5-2.5,2.5
					C528.3,519.3,527.1,518.1,527.1,516.7z"/>
			</g>
		</g>
		<g class="st20">
			<g>
				<path class="st6" d="M519,550c0,0,4.6-5.9,10.9-5.9c6.4,0,10.3,5.9,10.3,5.9s-3.3,5.9-10.3,5.9C522.6,555.9,519,550,519,550z"/>
			</g>
			<g>
				<path class="st32" d="M525.5,550c0-2.3,1.9-4.1,4.1-4.1c2.2,0,4.1,1.9,4.1,4.1c0,2.3-1.9,4.1-4.1,4.1
					C527.4,554.1,525.5,552.3,525.5,550z"/>
			</g>
			<g>
				<path class="st6" d="M527.1,550c0-1.4,1.1-2.5,2.5-2.5c1.4,0,2.5,1.1,2.5,2.5c0,1.4-1.1,2.5-2.5,2.5
					C528.3,552.5,527.1,551.4,527.1,550z"/>
			</g>
		</g>
		<g>
			<rect x="1288.6" y="511" class="st21" width="257.9" height="17"/>
		</g>
		<g>
			<rect x="1334.2" y="476.7" class="st21" width="149.9" height="17"/>
		</g>
		<g>
			<rect x="1317.7" y="407.9" class="st21" width="173.5" height="17"/>
		</g>
		<g>
			<rect x="1370.4" y="442.3" class="st31" width="149.9" height="17"/>
		</g>
		<g>
			<g>
				<path class="st32" d="M959,156.1c-35.5-45.2-74.9-46.9-75.3-46.9v-1c0.4,0,40.3,1.6,76.1,47.3L959,156.1z"/>
			</g>
			<g>
				<path class="st31" d="M879.1,108.7c0-2.3,1.9-4.2,4.2-4.2c2.3,0,4.2,1.9,4.2,4.2c0,2.3-1.9,4.2-4.2,4.2
					C881,112.9,879.1,111,879.1,108.7z"/>
			</g>
			<g>
				<path class="st31" d="M955.2,155.3c0-2.3,1.9-4.2,4.2-4.2c2.3,0,4.2,1.9,4.2,4.2s-1.9,4.2-4.2,4.2
					C957.1,159.5,955.2,157.6,955.2,155.3z"/>
			</g>
		</g>
		<g>
			<g>
				<path class="st32" d="M969.6,100l-0.8-0.7c0.2-0.3,26.6-30.4,84.5-29.5v1C995.8,69.9,969.9,99.7,969.6,100z"/>
			</g>
			<g>
				<path class="st31" d="M966.3,103.2c-1.9-1.4-2.1-4.1-0.7-5.9c1.4-1.8,4.1-2.1,5.9-0.7c1.8,1.4,2.1,4.1,0.7,5.9
					C970.8,104.4,968.2,104.6,966.3,103.2z"/>
			</g>
			<g>
				<path class="st31" d="M1050.4,73.2c-1.8-1.4-2.1-4.1-0.7-5.9c1.4-1.8,4.1-2.1,5.9-0.7c1.8,1.4,2.1,4.1,0.7,5.9
					C1054.8,74.4,1052.1,74.7,1050.4,73.2z"/>
			</g>
		</g>
		<g>
			<g>
				<path class="st32" d="M1238,99.8l-0.9-0.8c0.3-0.3,30.1-34.1,99.8-29.6l-0.1,1.2C1267.8,66.2,1238.3,99.5,1238,99.8z"/>
			</g>
			<g>
				<path class="st31" d="M1234.4,103.5c-2.3-1.9-2.7-4.9-1.1-7s4.8-2.2,7-0.4c2.3,1.9,2.7,4.9,1.1,7S1236.6,105.3,1234.4,103.5z"/>
			</g>
			<g>
				<path class="st31" d="M1333.4,73.4c-2.3-1.9-2.7-4.9-1.1-7c1.6-2.1,4.8-2.2,7-0.4c2.3,1.9,2.7,4.9,1.1,7
					C1338.9,75.1,1335.7,75.2,1333.4,73.4z"/>
			</g>
		</g>
		<g>
			<rect x="1118.3" y="115.6" class="st32" width="70.7" height="1"/>
		</g>
		<g>
			<path class="st33" d="M1114.2,116.1c0-2.3,1.9-4.2,4.2-4.2s4.2,1.9,4.2,4.2c0,2.3-1.9,4.2-4.2,4.2S1114.2,118.5,1114.2,116.1z"/>
		</g>
		<g>
			<path class="st33" d="M1184.9,116.1c0-2.3,1.9-4.2,4.2-4.2s4.2,1.9,4.2,4.2c0,2.3-1.9,4.2-4.2,4.2
				C1186.8,120.3,1184.9,118.5,1184.9,116.1z"/>
		</g>
		<g>
			<g>
				
					<rect x="1259.2" y="387.5" transform="matrix(0.7071 -0.7072 0.7072 0.7071 92.7466 1009.0867)" class="st31" width="10.2" height="10.2"/>
			</g>
		</g>
		<g>
			<path class="st32" d="M1078.6,244.2c-40.3,0-82.8-7-117.2-14.8c-62.5-14.1-112.6-33.3-113.2-33.5l0.3-1
				c0.5,0.2,50.6,19.4,113.1,33.4c57.5,13,137.6,24,192,3.2c54.7-20.9,112.4-17.9,151.4-11.6c42.2,6.7,71.8,18.6,72,18.7l-0.3,1
				c-0.3-0.1-29.9-11.9-71.9-18.6c-38.8-6.1-96.4-9.2-150.8,11.6C1132,240.9,1105.7,244.2,1078.6,244.2z"/>
		</g>
		<g>
			<path class="st34" d="M1161,228.2c0-2.3,1.9-4.2,4.2-4.2c2.3,0,4.2,1.9,4.2,4.2c0,2.3-1.9,4.2-4.2,4.2
				C1162.9,232.5,1161,230.7,1161,228.2z"/>
		</g>
		<g>
			<path class="st34" d="M1044.3,243.1c0-2.3,1.9-4.2,4.2-4.2c2.3,0,4.2,1.9,4.2,4.2c0,2.3-1.9,4.2-4.2,4.2
				C1046.2,247.3,1044.3,245.4,1044.3,243.1z"/>
		</g>
		<g>
			<g>
				<path class="st32" d="M1071.4,346.1c-8.7,0-18.3-1.5-28.1-5.9l0.4-0.9c29,13.4,58.2-0.2,58.5-0.3l0.4,0.9
					C1102.5,339.9,1089,346.1,1071.4,346.1z"/>
			</g>
			<g>
				<path class="st31" d="M1105.2,342.6c-1.8,1.4-4.5,1.2-5.9-0.7c-1.4-1.8-1.2-4.5,0.7-5.9c1.8-1.4,4.5-1.2,5.9,0.7
					C1107.3,338.5,1106.9,341.2,1105.2,342.6z"/>
			</g>
			<g>
				<path class="st31" d="M1046.2,343c-1.8,1.4-4.5,1.2-5.9-0.7c-1.4-1.8-1.2-4.5,0.7-5.9c1.8-1.4,4.5-1.2,5.9,0.7
					C1048.3,338.9,1048,341.5,1046.2,343z"/>
			</g>
		</g>
		<g>
			<g>
				<path class="st32" d="M1210.4,346.1c-8.7,0-18.3-1.5-28.1-5.9l0.4-0.9c29,13.3,58.2-0.2,58.5-0.3l0.4,0.9
					C1241.6,339.9,1228.2,346.1,1210.4,346.1z"/>
			</g>
			<g>
				<path class="st31" d="M1244.3,342.6c-1.8,1.4-4.5,1.2-5.9-0.7c-1.4-1.8-1.2-4.5,0.7-5.9c1.8-1.4,4.5-1.2,5.9,0.7
					C1246.3,338.5,1246,341.2,1244.3,342.6z"/>
			</g>
			<g>
				<path class="st31" d="M1185.3,343c-1.8,1.4-4.5,1.2-5.9-0.7c-1.4-1.8-1.2-4.5,0.7-5.9c1.8-1.4,4.5-1.2,5.9,0.7
					C1187.4,338.9,1187.1,341.5,1185.3,343z"/>
			</g>
		</g>
		<g class="st35">
			<path class="st10" d="M1393.7,191v144.1l-51.5-6.7c0,0-4.6-30.4,17.3-40.1C1379.8,279.5,1366.1,201.3,1393.7,191z"/>
		</g>
		<g>
			<path class="st31" d="M1370.1,239c0-2.3,1.9-4.2,4.2-4.2s4.2,1.9,4.2,4.2c0,2.3-1.9,4.2-4.2,4.2S1370.1,241.3,1370.1,239z"/>
		</g>
		<g>
			<path class="st31" d="M845.2,195.4c0-2.3,1.9-4.2,4.2-4.2c2.3,0,4.2,1.9,4.2,4.2c0,2.3-1.9,4.2-4.2,4.2
				C847.1,199.6,845.2,197.7,845.2,195.4z"/>
		</g>
	</g>
	<g class="st5">
		<rect x="1440.5" y="45.4" class="st6" width="271.8" height="308.6"/>
	</g>
	<g>
		<g>
			<g>
				<rect x="1464.2" y="64" class="st10" width="132.6" height="3.7"/>
			</g>
			<g>
				<rect x="1464.2" y="73.4" class="st10" width="102.6" height="3.8"/>
			</g>
		</g>
		<g>
			<rect x="1666.7" y="66.2" class="st10" width="7.1" height="7.1"/>
		</g>
		<g>
			<g>
				<rect x="1464.2" y="105.8" class="st10" width="132.6" height="3.7"/>
			</g>
			<g>
				<rect x="1464.2" y="115.3" class="st10" width="102.6" height="3.7"/>
			</g>
		</g>
		<g>
			<rect x="1666.7" y="108" class="st10" width="7.1" height="7.1"/>
		</g>
		<g>
			<g>
				<rect x="1464.2" y="147.8" class="st10" width="132.6" height="3.7"/>
			</g>
			<g>
				<rect x="1464.2" y="157.1" class="st10" width="102.6" height="3.7"/>
			</g>
		</g>
		<g>
			<rect x="1666.7" y="150" class="st10" width="7.1" height="7.1"/>
		</g>
		<g>
			<g>
				<rect x="1464.2" y="189.6" class="st10" width="132.6" height="3.8"/>
			</g>
			<g>
				<rect x="1464.2" y="199" class="st10" width="102.6" height="3.8"/>
			</g>
		</g>
		<g>
			<rect x="1666.7" y="191.8" class="st10" width="7.1" height="7.1"/>
		</g>
		<g>
			<g>
				<rect x="1464.2" y="231.4" class="st10" width="132.6" height="3.7"/>
			</g>
			<g>
				<rect x="1464.2" y="240.9" class="st10" width="102.6" height="3.7"/>
			</g>
		</g>
		<g>
			<rect x="1666.7" y="233.6" class="st10" width="7.1" height="7.1"/>
		</g>
		<g>
			<rect x="1666.7" y="271.6" class="st10" width="7.1" height="7.1"/>
		</g>
		<g>
			<g>
				<rect x="1464.2" y="273.4" class="st10" width="132.6" height="3.8"/>
			</g>
			<g>
				<rect x="1464.2" y="282.7" class="st10" width="102.6" height="3.8"/>
			</g>
		</g>
		<g>
			<g>
				<rect x="1464.2" y="315.2" class="st10" width="132.6" height="3.7"/>
			</g>
			<g>
				<rect x="1464.2" y="324.6" class="st10" width="102.6" height="3.7"/>
			</g>
		</g>
		<g>
			<rect x="1666.7" y="317.4" class="st10" width="7.1" height="7.1"/>
		</g>
	</g>
</g>
<g>
	<g>
		<g>
			<path class="st36" d="M1348.3,969.9c0,0-19,46.9-12.3,51.8c6.7,4.9,29.6-15,35.7-36C1377.9,964.6,1348.3,969.9,1348.3,969.9z"/>
		</g>
		<g>
			<path class="st27" d="M1736,1286.2c-84,0-171.6,0-254.4,0c-3.2-7.7-6.6-15.8-10.1-24c-22.9-53.5-51.8-113.7-67.8-120.9
				c-29.5-13.2-47.3-1.6-84-44.5s-60.1-57.4-45.7-67.3c14.4-9.9,62,27.3,75.3,25.7c10.6-1.3,16.1-27,15.3-54.1
				c-0.2-7.1-0.9-14.3-2-21.2l0,0c-0.5-3.5-1.2-6.9-2.1-10.1c-1.2-5-2.9-9.9-4.7-14.1c-3.6-8.2-3.3-13.8-0.5-17.7
				c8.2-11.3,38.3-5.9,49.7-3.2c5,1.2,20.7-8.3,31.7-2.9c17,8.3,27-1.3,38.3,6c8,5.2,24.5,7.6,30.2,15c10.8,14.2,13.5,44,24,71.7
				c9.8,25.6,13.2,52.5,46.5,97.8c14.9,20.2,61,67.1,107.6,112.9C1701.5,1252.8,1719.6,1270.4,1736,1286.2z"/>
		</g>
		<g>
			<path class="st27" d="M1355,937.9c0,0-70,57.3-60.9,65s32.2,0.1,69.9-24C1401.9,954.5,1355,937.9,1355,937.9z"/>
		</g>
	</g>
	<g>
		<path class="st1" d="M1756.9,1286.2h-21c-84,0-171.6,0-254.4,0h-24.7l-2.9-5.9c0,0,5.8-7.9,17.5-18.1
			c30.6-26.8,101.3-69.4,211.9-27c4.9,1.9,9.9,4,15,6.1L1756.9,1286.2z"/>
	</g>
</g>
<g>
	<g>
		<g>
			<path class="st36" d="M728.9,999.2c0,0,12.2,49.1,4.8,53s-27.2-19.1-30.3-40.7C700.5,989.9,728.9,999.2,728.9,999.2z"/>
		</g>
		<g>
			<path class="st27" d="M739.5,1128.8c-42.4,37.2-58.4,23.3-89.5,32.2c-16.9,4.8-53.9,60.4-84.2,110.1c-2.6,4.3-5.2,8.5-7.6,12.6
				c-100-0.3-200.2-0.8-292.7-1.1c25-17.9,59.7-42.8,94.2-68.3c52.6-38.8,104.8-78.6,122.5-96.5c39.5-40.2,46.7-66.2,59.9-90.2
				c14.2-25.6,13.7-55.7,33.3-55.3c9.7,0.1,18.1-12.4,27-16.5c12.2-5.6,23.9,6.9,42,1c11.6-3.8,27.6,6.5,32.8,6
				c10-0.9,34.1-4.6,45,1c6,3.1,8,9.1,1.3,20c-2.4,4-4.6,8.5-6.6,13.3c-1.1,2.7-2.2,5.6-3.1,8.6c-2.3,7-4.1,14.4-5.4,21.8
				c-4.7,26.8-2.9,53,7.5,55.8c12.8,3.5,66-32.2,78.9-20.4C807.7,1074.9,781.8,1091.6,739.5,1128.8z"/>
		</g>
		<g>
			<path class="st27" d="M721.2,963.5c0,0,105.7,31.5,100.2,42c-5.5,10.5-60.8,8.8-105,0.7C672.4,998.2,721.2,963.5,721.2,963.5z"/>
		</g>
	</g>
	<g>
		<path class="st1" d="M575.7,1283.8c-5.8,0-11.6,0-17.5-0.1c-100-0.3-200.2-0.8-292.7-1.1c-12,0-23.7-0.1-35.5-0.1l114-64.1
			c5.4-1.5,10.5-2.9,15.7-4c115.5-26.3,179.5,25.9,205.9,56.6C570,1276,573.3,1280.4,575.7,1283.8z"/>
	</g>
</g>
</svg>
